<svg width="36" height="36" viewBox="0 0 36 36" fill="none" xmlns="http://www.w3.org/2000/svg">
<circle cx="18" cy="18" r="18" fill="white"/>
<g clip-path="url(#clip0_11_2339)">
<path d="M21.9445 24.618C21.5781 26.1071 20.318 26.7801 19.2238 26.72C18.1462 26.6608 17.0791 25.9241 16.7777 24.618C16.7246 24.618 16.6663 24.618 16.6079 24.618C15.6936 24.618 14.7792 24.6158 13.8648 24.6188C13.4068 24.6202 13.0523 24.4398 12.8518 24.0234C12.6556 23.6158 12.7293 23.2354 13 22.8717C13.323 22.4374 13.6248 21.9868 13.9302 21.5397C14.057 21.3541 14.1022 21.1422 14.1018 20.9171C14.0996 19.7017 14.0754 18.4859 14.1061 17.2715C14.1632 15.0325 15.2096 13.3951 17.2437 12.4583C20.2175 11.089 23.7706 12.8866 24.4752 16.0895C24.5638 16.4922 24.6016 16.9126 24.6077 17.3254C24.6248 18.5074 24.6169 19.6903 24.6117 20.8728C24.6103 21.1579 24.6845 21.4089 24.8495 21.6406C25.161 22.0767 25.469 22.5159 25.7739 22.9568C26.0122 23.3017 26.0424 23.6724 25.8542 24.0441C25.6655 24.417 25.3453 24.6136 24.9271 24.6166C23.9908 24.6237 23.0545 24.6188 22.1182 24.6193C22.0594 24.618 22.0002 24.618 21.9445 24.618ZM24.9056 23.5584C24.5893 23.1021 24.2879 22.6607 23.979 22.2246C23.6947 21.8222 23.5591 21.3791 23.5613 20.8864C23.5661 19.7044 23.5666 18.5219 23.56 17.3399C23.5587 17.0731 23.538 16.8033 23.4964 16.5401C23.1322 14.2353 20.7958 12.6435 18.5174 13.1415C16.5083 13.5807 15.1556 15.255 15.153 17.3088C15.1513 18.4526 15.1403 19.5969 15.1578 20.7403C15.1671 21.3466 15.0069 21.8784 14.6441 22.3628C14.3571 22.7462 14.0947 23.1486 13.81 23.5588C17.5131 23.5584 21.1942 23.5584 24.9056 23.5584ZM20.82 24.6263C19.8442 24.6263 18.8701 24.6263 17.8939 24.6263C18.0593 25.2221 18.7069 25.6749 19.3747 25.6688C20.028 25.6631 20.6668 25.2041 20.82 24.6263Z" fill="black"/>
</g>
<circle cx="21.7035" cy="12.2572" r="3.46036" fill="#18C0C1"/>
<defs>
<clipPath id="clip0_11_2339">
<rect width="13.2359" height="14.7298" fill="white" transform="translate(12.7412 11.994)"/>
</clipPath>
</defs>
</svg>
